{
    "accessors" : [
        {
            "bufferView" : 0, 
            "componentType" : 5123, 
            "count" : 3456, 
            "max" : [
                575
            ], 
            "min" : [
                0
            ], 
            "type" : "SCALAR"
        }, 
        {
            "bufferView" : 1, 
            "componentType" : 5126, 
            "count" : 576, 
            "max" : [
                0.550000011920929, 
                0.05000000074505806, 
                0.550000011920929
            ], 
            "min" : [
                -0.550000011920929, 
                -0.05000000074505806, 
                -0.550000011920929
            ], 
            "type" : "VEC3"
        }, 
        {
            "bufferView" : 2, 
            "componentType" : 5126, 
            "count" : 576, 
            "max" : [
                1.0, 
                0.99993896484375, 
                1.0
            ], 
            "min" : [
                -1.0, 
                -0.99993896484375, 
                -0.999969482421875
            ], 
            "type" : "VEC3"
        }, 
        {
            "bufferView" : 3, 
            "componentType" : 5121, 
            "count" : 69, 
            "max" : [
                44
            ], 
            "min" : [
                0
            ], 
            "type" : "SCALAR"
        }, 
        {
            "bufferView" : 4, 
            "componentType" : 5126, 
            "count" : 45, 
            "max" : [
                2.0, 
                1.0, 
                1.0
            ], 
            "min" : [
                -2.0, 
                -1.0, 
                -1.0
            ], 
            "type" : "VEC3"
        }, 
        {
            "bufferView" : 5, 
            "componentType" : 5126, 
            "count" : 45, 
            "max" : [
                1.0, 
                1.0, 
                1.0
            ], 
            "min" : [
                -1.0, 
                -0.9701425433158875, 
                -1.0
            ], 
            "type" : "VEC3"
        }
    ], 
    "asset" : {
        "generator" : "Khronos Blender glTF 2.0 exporter", 
        "version" : "2.0"
    }, 
    "bufferViews" : [
        {
            "buffer" : 0, 
            "byteLength" : 6912, 
            "byteOffset" : 0, 
            "target" : 34963
        }, 
        {
            "buffer" : 0, 
            "byteLength" : 6912, 
            "byteOffset" : 6912, 
            "target" : 34962
        }, 
        {
            "buffer" : 0, 
            "byteLength" : 6912, 
            "byteOffset" : 13824, 
            "target" : 34962
        }, 
        {
            "buffer" : 0, 
            "byteLength" : 69, 
            "byteOffset" : 20736, 
            "target" : 34963
        }, 
        {
            "buffer" : 0, 
            "byteLength" : 540, 
            "byteOffset" : 20808, 
            "target" : 34962
        }, 
        {
            "buffer" : 0, 
            "byteLength" : 540, 
            "byteOffset" : 21348, 
            "target" : 34962
        }
    ], 
    "buffers" : [
        {
            "byteLength" : 21888, 
            "uri" : "cursor.bin"
        }
    ], 
    "materials" : [
        {
            "name" : "arrow", 
            "pbrMetallicRoughness" : {
                "metallicFactor" : 0.0
            }
        }, 
        {
            "name" : "ring", 
            "pbrMetallicRoughness" : {
                "baseColorFactor" : [
                    0.0069372818907690315, 
                    0.5019801691469574, 
                    0.640000066757203, 
                    1.0
                ], 
                "metallicFactor" : 0.0
            }
        }
    ], 
    "meshes" : [
        {
            "name" : "Torus", 
            "primitives" : [
                {
                    "attributes" : {
                        "NORMAL" : 2, 
                        "POSITION" : 1
                    }, 
                    "indices" : 0, 
                    "material" : 1
                }
            ]
        }, 
        {
            "name" : "Cube.001", 
            "primitives" : [
                {
                    "attributes" : {
                        "NORMAL" : 5, 
                        "POSITION" : 4
                    }, 
                    "indices" : 3, 
                    "material" : 0
                }
            ]
        }
    ], 
    "nodes" : [
        {
            "mesh" : 1, 
            "name" : "arrow", 
            "scale" : [
                0.0625, 
                0.25, 
                0.03125
            ], 
            "translation" : [
                0.0, 
                0.25, 
                -0.0
            ]
        }, 
        {
            "mesh" : 0, 
            "name" : "ring", 
            "scale" : [
                0.5, 
                0.5, 
                0.5
            ]
        }
    ], 
    "scene" : 0, 
    "scenes" : [
        {
            "name" : "Scene", 
            "nodes" : [
                0, 
                1
            ]
        }
    ]
}
