{
    "accessors" : [
        {
            "bufferView" : 0, 
            "componentType" : 5123, 
            "count" : 2040, 
            "max" : [
                341
            ], 
            "min" : [
                0
            ], 
            "type" : "SCALAR"
        }, 
        {
            "bufferView" : 1, 
            "componentType" : 5126, 
            "count" : 342, 
            "max" : [
                0.01322975941002369, 
                0.030925389379262924, 
                0.035008855164051056
            ], 
            "min" : [
                -0.013229784555733204, 
                -0.013062898069620132, 
                -0.03500884026288986
            ], 
            "type" : "VEC3"
        }, 
        {
            "bufferView" : 2, 
            "componentType" : 5126, 
            "count" : 342, 
            "max" : [
                0.9987792372703552, 
                0.696218729019165, 
                1.0
            ], 
            "min" : [
                -0.9987792372703552, 
                -0.999481201171875, 
                -1.0
            ], 
            "type" : "VEC3"
        }, 
        {
            "bufferView" : 3, 
            "componentType" : 5123, 
            "count" : 2040, 
            "max" : [
                341
            ], 
            "min" : [
                0
            ], 
            "type" : "SCALAR"
        }, 
        {
            "bufferView" : 4, 
            "componentType" : 5126, 
            "count" : 342, 
            "max" : [
                0.01322976965457201, 
                0.03092539682984352, 
                0.03500884026288986
            ], 
            "min" : [
                -0.013229772448539734, 
                -0.013062898069620132, 
                -0.035008855164051056
            ], 
            "type" : "VEC3"
        }, 
        {
            "bufferView" : 5, 
            "componentType" : 5126, 
            "count" : 342, 
            "max" : [
                0.9987792372703552, 
                0.696218729019165, 
                1.0
            ], 
            "min" : [
                -0.9987792372703552, 
                -0.999481201171875, 
                -1.0
            ], 
            "type" : "VEC3"
        }, 
        {
            "bufferView" : 6, 
            "componentType" : 5121, 
            "count" : 1332, 
            "max" : [
                223
            ], 
            "min" : [
                0
            ], 
            "type" : "SCALAR"
        }, 
        {
            "bufferView" : 7, 
            "componentType" : 5126, 
            "count" : 224, 
            "max" : [
                0.05790821835398674, 
                0.05103359371423721, 
                0.05790829658508301
            ], 
            "min" : [
                -0.05790822580456734, 
                -0.047353047877550125, 
                -0.05790816247463226
            ], 
            "type" : "VEC3"
        }, 
        {
            "bufferView" : 8, 
            "componentType" : 5126, 
            "count" : 224, 
            "max" : [
                1.0, 
                1.0, 
                1.0
            ], 
            "min" : [
                -1.0, 
                -1.0, 
                -1.0
            ], 
            "type" : "VEC3"
        }, 
        {
            "bufferView" : 9, 
            "componentType" : 5123, 
            "count" : 3072, 
            "max" : [
                513
            ], 
            "min" : [
                0
            ], 
            "type" : "SCALAR"
        }, 
        {
            "bufferView" : 10, 
            "componentType" : 5126, 
            "count" : 514, 
            "max" : [
                0.013229690492153168, 
                0.039992526173591614, 
                0.013229751959443092
            ], 
            "min" : [
                -0.013229846954345703, 
                -0.039992451667785645, 
                -0.013229763135313988
            ], 
            "type" : "VEC3"
        }, 
        {
            "bufferView" : 11, 
            "componentType" : 5126, 
            "count" : 514, 
            "max" : [
                0.9987792372703552, 
                1.0, 
                0.9987792372703552
            ], 
            "min" : [
                -0.9987792372703552, 
                -1.0, 
                -0.9987792372703552
            ], 
            "type" : "VEC3"
        }, 
        {
            "bufferView" : 12, 
            "componentType" : 5123, 
            "count" : 27648, 
            "max" : [
                4609
            ], 
            "min" : [
                0
            ], 
            "type" : "SCALAR"
        }, 
        {
            "bufferView" : 13, 
            "componentType" : 5126, 
            "count" : 4610, 
            "max" : [
                0.057318806648254395, 
                0.02717653475701809, 
                0.05731876194477081
            ], 
            "min" : [
                -0.057318784296512604, 
                -0.027495617046952248, 
                -0.05731881782412529
            ], 
            "type" : "VEC3"
        }, 
        {
            "bufferView" : 14, 
            "componentType" : 5126, 
            "count" : 4610, 
            "max" : [
                0.9953612089157104, 
                0.999969482421875, 
                0.9953612089157104
            ], 
            "min" : [
                -0.9953612089157104, 
                -1.0, 
                -0.9953612089157104
            ], 
            "type" : "VEC3"
        }, 
        {
            "bufferView" : 15, 
            "componentType" : 5123, 
            "count" : 3444, 
            "max" : [
                577
            ], 
            "min" : [
                0
            ], 
            "type" : "SCALAR"
        }, 
        {
            "bufferView" : 16, 
            "componentType" : 5126, 
            "count" : 578, 
            "max" : [
                0.03800005838274956, 
                0.002955228090286255, 
                0.0019878745079040527
            ], 
            "min" : [
                -0.03800005838274956, 
                -0.016731470823287964, 
                -0.0019874870777130127
            ], 
            "type" : "VEC3"
        }, 
        {
            "bufferView" : 17, 
            "componentType" : 5126, 
            "count" : 578, 
            "max" : [
                0.9980468153953552, 
                0.9974974989891052, 
                0.9987792372703552
            ], 
            "min" : [
                -0.9980468153953552, 
                -0.9577623605728149, 
                -0.9987792372703552
            ], 
            "type" : "VEC3"
        }, 
        {
            "bufferView" : 18, 
            "componentType" : 5123, 
            "count" : 3072, 
            "max" : [
                513
            ], 
            "min" : [
                0
            ], 
            "type" : "SCALAR"
        }, 
        {
            "bufferView" : 19, 
            "componentType" : 5126, 
            "count" : 514, 
            "max" : [
                0.013229772448539734, 
                0.03999251872301102, 
                0.013229775242507458
            ], 
            "min" : [
                -0.013229772448539734, 
                -0.03999245911836624, 
                -0.01322976965457201
            ], 
            "type" : "VEC3"
        }, 
        {
            "bufferView" : 20, 
            "componentType" : 5126, 
            "count" : 514, 
            "max" : [
                0.9987792372703552, 
                1.0, 
                0.9987792372703552
            ], 
            "min" : [
                -0.9987792372703552, 
                -0.999969482421875, 
                -0.9987792372703552
            ], 
            "type" : "VEC3"
        }, 
        {
            "bufferView" : 21, 
            "componentType" : 5123, 
            "count" : 1320, 
            "max" : [
                723
            ], 
            "min" : [
                0
            ], 
            "type" : "SCALAR"
        }, 
        {
            "bufferView" : 22, 
            "componentType" : 5126, 
            "count" : 724, 
            "max" : [
                0.026592090725898743, 
                0.17653699219226837, 
                0.051159970462322235
            ], 
            "min" : [
                -0.02529047802090645, 
                0.16069714725017548, 
                0.03743933513760567
            ], 
            "type" : "VEC3"
        }, 
        {
            "bufferView" : 23, 
            "componentType" : 5126, 
            "count" : 724, 
            "max" : [
                0.9666700959205627, 
                0.9021162986755371, 
                0.8970940709114075
            ], 
            "min" : [
                -0.9666701555252075, 
                -0.9021164178848267, 
                -0.8699073791503906
            ], 
            "type" : "VEC3"
        }
    ], 
    "asset" : {
        "generator" : "Khronos Blender glTF 2.0 exporter", 
        "version" : "2.0"
    }, 
    "bufferViews" : [
        {
            "buffer" : 0, 
            "byteLength" : 4080, 
            "byteOffset" : 0, 
            "target" : 34963
        }, 
        {
            "buffer" : 0, 
            "byteLength" : 4104, 
            "byteOffset" : 4080, 
            "target" : 34962
        }, 
        {
            "buffer" : 0, 
            "byteLength" : 4104, 
            "byteOffset" : 8184, 
            "target" : 34962
        }, 
        {
            "buffer" : 0, 
            "byteLength" : 4080, 
            "byteOffset" : 12288, 
            "target" : 34963
        }, 
        {
            "buffer" : 0, 
            "byteLength" : 4104, 
            "byteOffset" : 16368, 
            "target" : 34962
        }, 
        {
            "buffer" : 0, 
            "byteLength" : 4104, 
            "byteOffset" : 20472, 
            "target" : 34962
        }, 
        {
            "buffer" : 0, 
            "byteLength" : 1332, 
            "byteOffset" : 24576, 
            "target" : 34963
        }, 
        {
            "buffer" : 0, 
            "byteLength" : 2688, 
            "byteOffset" : 25908, 
            "target" : 34962
        }, 
        {
            "buffer" : 0, 
            "byteLength" : 2688, 
            "byteOffset" : 28596, 
            "target" : 34962
        }, 
        {
            "buffer" : 0, 
            "byteLength" : 6144, 
            "byteOffset" : 31284, 
            "target" : 34963
        }, 
        {
            "buffer" : 0, 
            "byteLength" : 6168, 
            "byteOffset" : 37428, 
            "target" : 34962
        }, 
        {
            "buffer" : 0, 
            "byteLength" : 6168, 
            "byteOffset" : 43596, 
            "target" : 34962
        }, 
        {
            "buffer" : 0, 
            "byteLength" : 55296, 
            "byteOffset" : 49764, 
            "target" : 34963
        }, 
        {
            "buffer" : 0, 
            "byteLength" : 55320, 
            "byteOffset" : 105060, 
            "target" : 34962
        }, 
        {
            "buffer" : 0, 
            "byteLength" : 55320, 
            "byteOffset" : 160380, 
            "target" : 34962
        }, 
        {
            "buffer" : 0, 
            "byteLength" : 6888, 
            "byteOffset" : 215700, 
            "target" : 34963
        }, 
        {
            "buffer" : 0, 
            "byteLength" : 6936, 
            "byteOffset" : 222588, 
            "target" : 34962
        }, 
        {
            "buffer" : 0, 
            "byteLength" : 6936, 
            "byteOffset" : 229524, 
            "target" : 34962
        }, 
        {
            "buffer" : 0, 
            "byteLength" : 6144, 
            "byteOffset" : 236460, 
            "target" : 34963
        }, 
        {
            "buffer" : 0, 
            "byteLength" : 6168, 
            "byteOffset" : 242604, 
            "target" : 34962
        }, 
        {
            "buffer" : 0, 
            "byteLength" : 6168, 
            "byteOffset" : 248772, 
            "target" : 34962
        }, 
        {
            "buffer" : 0, 
            "byteLength" : 2640, 
            "byteOffset" : 254940, 
            "target" : 34963
        }, 
        {
            "buffer" : 0, 
            "byteLength" : 8688, 
            "byteOffset" : 257580, 
            "target" : 34962
        }, 
        {
            "buffer" : 0, 
            "byteLength" : 8688, 
            "byteOffset" : 266268, 
            "target" : 34962
        }
    ], 
    "buffers" : [
        {
            "byteLength" : 274956, 
            "uri" : "android.bin"
        }
    ], 
    "materials" : [
        {
            "name" : "green", 
            "pbrMetallicRoughness" : {
                "baseColorFactor" : [
                    0.37123775482177734, 
                    0.5647115707397461, 
                    0.04091520607471466, 
                    1.0
                ], 
                "metallicFactor" : 0.0
            }
        }, 
        {
            "name" : "white", 
            "pbrMetallicRoughness" : {
                "metallicFactor" : 0.0
            }
        }
    ], 
    "meshes" : [
        {
            "name" : "Sphere.001", 
            "primitives" : [
                {
                    "attributes" : {
                        "NORMAL" : 2, 
                        "POSITION" : 1
                    }, 
                    "indices" : 0, 
                    "material" : 0
                }
            ]
        }, 
        {
            "name" : "Sphere.007", 
            "primitives" : [
                {
                    "attributes" : {
                        "NORMAL" : 5, 
                        "POSITION" : 4
                    }, 
                    "indices" : 3, 
                    "material" : 0
                }
            ]
        }, 
        {
            "name" : "Cylinder", 
            "primitives" : [
                {
                    "attributes" : {
                        "NORMAL" : 8, 
                        "POSITION" : 7
                    }, 
                    "indices" : 6, 
                    "material" : 0
                }
            ]
        }, 
        {
            "name" : "Sphere.006", 
            "primitives" : [
                {
                    "attributes" : {
                        "NORMAL" : 11, 
                        "POSITION" : 10
                    }, 
                    "indices" : 9, 
                    "material" : 0
                }
            ]
        }, 
        {
            "name" : "Sphere", 
            "primitives" : [
                {
                    "attributes" : {
                        "NORMAL" : 14, 
                        "POSITION" : 13
                    }, 
                    "indices" : 12, 
                    "material" : 0
                }
            ]
        }, 
        {
            "name" : "Sphere.003", 
            "primitives" : [
                {
                    "attributes" : {
                        "NORMAL" : 17, 
                        "POSITION" : 16
                    }, 
                    "indices" : 15, 
                    "material" : 0
                }
            ]
        }, 
        {
            "name" : "Sphere.005", 
            "primitives" : [
                {
                    "attributes" : {
                        "NORMAL" : 20, 
                        "POSITION" : 19
                    }, 
                    "indices" : 18, 
                    "material" : 0
                }
            ]
        }, 
        {
            "name" : "Cylinder.004", 
            "primitives" : [
                {
                    "attributes" : {
                        "NORMAL" : 23, 
                        "POSITION" : 22
                    }, 
                    "indices" : 21, 
                    "material" : 1
                }
            ]
        }
    ], 
    "nodes" : [
        {
            "mesh" : 5, 
            "name" : "antennas", 
            "translation" : [
                0.0, 
                0.20817290246486664, 
                -0.0
            ]
        }, 
        {
            "mesh" : 3, 
            "name" : "arm_left", 
            "translation" : [
                -0.07613387703895569, 
                0.10227088630199432, 
                5.9061362662760075e-06
            ]
        }, 
        {
            "mesh" : 6, 
            "name" : "arm_right", 
            "translation" : [
                0.07613397389650345, 
                0.10227090865373611, 
                5.853373295394704e-06
            ]
        }, 
        {
            "mesh" : 2, 
            "name" : "body", 
            "translation" : [
                0.0, 
                0.08956000953912735, 
                -0.0
            ]
        }, 
        {
            "mesh" : 7, 
            "name" : "eye_right"
        }, 
        {
            "mesh" : 4, 
            "name" : "head", 
            "translation" : [
                0.0, 
                0.17253541946411133, 
                -0.0
            ]
        }, 
        {
            "mesh" : 1, 
            "name" : "leg_left", 
            "translation" : [
                -0.02158006653189659, 
                0.013348404318094254, 
                -8.368135240743868e-06
            ]
        }, 
        {
            "mesh" : 0, 
            "name" : "leg_right", 
            "translation" : [
                0.021580127999186516, 
                0.013348404318094254, 
                -8.41035489429487e-06
            ]
        }
    ], 
    "scene" : 0, 
    "scenes" : [
        {
            "name" : "Scene", 
            "nodes" : [
                4, 
                6, 
                1, 
                2, 
                0, 
                7, 
                5, 
                3
            ]
        }
    ]
}
